# xmcd
#
# Track frame offsets:
#	150
#	14035
#	25401
#	41776
#	54866
#	66566
#	78376
#	92501
#	107569
#	125855
#	136342
#	151207
#	162209
#	175310
#	191429
#	206638
#	217103
#	230742
#	247108
#	262945
#
# Disc length: 3720 seconds
# Revision: 1
# Processed by: cddbd v1.5.2PL0 Copyright (c) Steve Scherf et al.
# Submitted via: dBpowerAMP V12.0
#
DISCID=240e8614
DTITLE=Various Artist - Original Hits Country, Disc 6
DYEAR=2009
DGENRE=Country
TTITLE0=Glen Campbell - Wichita Lineman
TTITLE1=Bobbie Gentry - Here, There and Everywhere
TTITLE2=Kenny Rogers - Lucille
TTITLE3=Crystal Gayle - Talking In Your Sleep
TTITLE4=Tennessee Ernie Ford - Sixteen Tons
TTITLE5=Sonny James - Only the Lonely (Know the Way I Feel)
TTITLE6=Lacy J. Dalton - Still Crazy After All These Years
TTITLE7=Tanya Tucker - Delta Dawn
TTITLE8=Susan Ashton - Think of Me
TTITLE9=Jerry Kilgore - Lonesome Love List
TTITLE10=Asleep at the Wheel - Lay Down Sally
TTITLE11=Chris LeDoux - So You Want To Be a Cowboy
TTITLE12=Trace Adkins - See Jane Run
TTITLE13=Wild Rose - Hillbilly Twist
TTITLE14=Eddy Raven - In a Letter To You
TTITLE15=Mel McDaniel - Louisiana Saturday Night
TTITLE16=Noah Gordon - The Blue Pages
TTITLE17=Suzy Bogguss - Eat At Joe's
TTITLE18=Band, The - The Night They Drove Old Dixie Down
TTITLE19=Nitty Gritty Dirt Band, The - Mr Bojangles
EXTD=
EXTT0=
EXTT1=
EXTT2=
EXTT3=
EXTT4=
EXTT5=
EXTT6=
EXTT7=
EXTT8=
EXTT9=
EXTT10=
EXTT11=
EXTT12=
EXTT13=
EXTT14=
EXTT15=
EXTT16=
EXTT17=
EXTT18=
EXTT19=
PLAYORDER=
